<?xml version="1.0" encoding="UTF-8" standalone="no"?>
<svg
   viewBox="0 0 640 512"
   version="1.1"
   id="svg4"
   sodipodi:docname="node-green.svg"
   inkscape:version="1.2.1 (9c6d41e410, 2022-07-14)"
   xmlns:inkscape="http://www.inkscape.org/namespaces/inkscape"
   xmlns:sodipodi="http://sodipodi.sourceforge.net/DTD/sodipodi-0.dtd"
   xmlns="http://www.w3.org/2000/svg"
   xmlns:svg="http://www.w3.org/2000/svg">
  <defs
     id="defs8" />
  <sodipodi:namedview
     id="namedview6"
     pagecolor="#ffffff"
     bordercolor="#000000"
     borderopacity="0.25"
     inkscape:showpageshadow="2"
     inkscape:pageopacity="0.0"
     inkscape:pagecheckerboard="0"
     inkscape:deskcolor="#d1d1d1"
     showgrid="false"
     inkscape:zoom="1.7128906"
     inkscape:cx="319.92702"
     inkscape:cy="256.2919"
     inkscape:window-width="1920"
     inkscape:window-height="1057"
     inkscape:window-x="-8"
     inkscape:window-y="-8"
     inkscape:window-maximized="1"
     inkscape:current-layer="svg4" />
  <!--! Font Awesome Pro 6.4.2 by @fontawesome - https://fontawesome.com License - https://fontawesome.com/license (Commercial License) Copyright 2023 Fonticons, Inc. -->
  <path
     d="M316.3 452c-2.1 0-4.2-.6-6.1-1.6L291 439c-2.9-1.6-1.5-2.2-.5-2.5 3.8-1.3 4.6-1.6 8.7-4 .4-.2 1-.1 1.4.1l14.8 8.8c.5.3 1.3.3 1.8 0L375 408c.5-.3.9-.9.9-1.6v-66.7c0-.7-.3-1.3-.9-1.6l-57.8-33.3c-.5-.3-1.2-.3-1.8 0l-57.8 33.3c-.6.3-.9 1-.9 1.6v66.7c0 .6.4 1.2.9 1.5l15.8 9.1c8.6 4.3 13.9-.8 13.9-5.8v-65.9c0-.9.7-1.7 1.7-1.7h7.3c.9 0 1.7.7 1.7 1.7v65.9c0 11.5-6.2 18-17.1 18-3.3 0-6 0-13.3-3.6l-15.2-8.7c-3.7-2.2-6.1-6.2-6.1-10.5v-66.7c0-4.3 2.3-8.4 6.1-10.5l57.8-33.4c3.7-2.1 8.5-2.1 12.1 0l57.8 33.4c3.7 2.2 6.1 6.2 6.1 10.5v66.7c0 4.3-2.3 8.4-6.1 10.5l-57.8 33.4c-1.7 1.1-3.8 1.7-6 1.7zm46.7-65.8c0-12.5-8.4-15.8-26.2-18.2-18-2.4-19.8-3.6-19.8-7.8 0-3.5 1.5-8.1 14.8-8.1 11.9 0 16.3 2.6 18.1 10.6.2.8.8 1.3 1.6 1.3h7.5c.5 0 .9-.2 1.2-.5.3-.4.5-.8.4-1.3-1.2-13.8-10.3-20.2-28.8-20.2-16.5 0-26.3 7-26.3 18.6 0 12.7 9.8 16.1 25.6 17.7 18.9 1.9 20.4 4.6 20.4 8.3 0 6.5-5.2 9.2-17.4 9.2-15.3 0-18.7-3.8-19.8-11.4-.1-.8-.8-1.4-1.7-1.4h-7.5c-.9 0-1.7.7-1.7 1.7 0 9.7 5.3 21.3 30.6 21.3 18.5 0 29-7.2 29-19.8zm54.5-50.1c0 6.1-5 11.1-11.1 11.1s-11.1-5-11.1-11.1c0-6.3 5.2-11.1 11.1-11.1 6-.1 11.1 4.8 11.1 11.1zm-1.8 0c0-5.2-4.2-9.3-9.4-9.3-5.1 0-9.3 4.1-9.3 9.3 0 5.2 4.2 9.4 9.3 9.4 5.2-.1 9.4-4.3 9.4-9.4zm-4.5 6.2h-2.6c-.1-.6-.5-3.8-.5-3.9-.2-.7-.4-1.1-1.3-1.1h-2.2v5h-2.4v-12.5h4.3c1.5 0 4.4 0 4.4 3.3 0 2.3-1.5 2.8-2.4 3.1 1.7.1 1.8 1.2 2.1 2.8.1 1 .3 2.7.6 3.3zm-2.8-8.8c0-1.7-1.2-1.7-1.8-1.7h-2v3.5h1.9c1.6 0 1.9-1.1 1.9-1.8zM137.3 191c0-2.7-1.4-5.1-3.7-6.4l-61.3-35.3c-1-.6-2.2-.9-3.4-1h-.6c-1.2 0-2.3.4-3.4 1L3.7 184.6C1.4 185.9 0 188.4 0 191l.1 95c0 1.3.7 2.5 1.8 3.2 1.1.7 2.5.7 3.7 0L42 268.3c2.3-1.4 3.7-3.8 3.7-6.4v-44.4c0-2.6 1.4-5.1 3.7-6.4l15.5-8.9c1.2-.7 2.4-1 3.7-1 1.3 0 2.6.3 3.7 1l15.5 8.9c2.3 1.3 3.7 3.8 3.7 6.4v44.4c0 2.6 1.4 5.1 3.7 6.4l36.4 20.9c1.1.7 2.6.7 3.7 0 1.1-.6 1.8-1.9 1.8-3.2l.2-95zM472.5 87.3v176.4c0 2.6-1.4 5.1-3.7 6.4l-61.3 35.4c-2.3 1.3-5.1 1.3-7.4 0l-61.3-35.4c-2.3-1.3-3.7-3.8-3.7-6.4v-70.8c0-2.6 1.4-5.1 3.7-6.4l61.3-35.4c2.3-1.3 5.1-1.3 7.4 0l15.3 8.8c1.7 1 3.9-.3 3.9-2.2v-94c0-2.8 3-4.6 5.5-3.2l36.5 20.4c2.3 1.2 3.8 3.7 3.8 6.4zm-46 128.9c0-.7-.4-1.3-.9-1.6l-21-12.2c-.6-.3-1.3-.3-1.9 0l-21 12.2c-.6.3-.9.9-.9 1.6v24.3c0 .7.4 1.3.9 1.6l21 12.1c.6.3 1.3.3 1.8 0l21-12.1c.6-.3.9-.9.9-1.6v-24.3zm209.8-.7c2.3-1.3 3.7-3.8 3.7-6.4V192c0-2.6-1.4-5.1-3.7-6.4l-60.9-35.4c-2.3-1.3-5.1-1.3-7.4 0l-61.3 35.4c-2.3 1.3-3.7 3.8-3.7 6.4v70.8c0 2.7 1.4 5.1 3.7 6.4l60.9 34.7c2.2 1.3 5 1.3 7.3 0l36.8-20.5c2.5-1.4 2.5-5 0-6.4L550 241.6c-1.2-.7-1.9-1.9-1.9-3.2v-22.2c0-1.3.7-2.5 1.9-3.2l19.2-11.1c1.1-.7 2.6-.7 3.7 0l19.2 11.1c1.1.7 1.9 1.9 1.9 3.2v17.4c0 2.8 3.1 4.6 5.6 3.2l36.7-21.3zM559 219c-.4.3-.7.7-.7 1.2v13.6c0 .5.3 1 .7 1.2l11.8 6.8c.4.3 1 .3 1.4 0L584 235c.4-.3.7-.7.7-1.2v-13.6c0-.5-.3-1-.7-1.2l-11.8-6.8c-.4-.3-1-.3-1.4 0L559 219zm-254.2 43.5v-70.4c0-2.6-1.6-5.1-3.9-6.4l-61.1-35.2c-2.1-1.2-5-1.4-7.4 0l-61.1 35.2c-2.3 1.3-3.9 3.7-3.9 6.4v70.4c0 2.8 1.9 5.2 4 6.4l61.2 35.2c2.4 1.4 5.2 1.3 7.4 0l61-35.2c1.8-1 3.1-2.7 3.6-4.7.1-.5.2-1.1.2-1.7zm-74.3-124.9l-.8.5h1.1l-.3-.5zm76.2 130.2l-.4-.7v.9l.4-.2z"
     id="path2" />
  <path
     style="fill:#ff00ff;stroke-width:0.583808"
     d="M 1.5753441,288.23745 C 0.72709715,287.30014 0.62656686,282.35044 0.55401004,237.9511 0.47602111,190.2277 0.50822819,188.65716 1.5952156,187.17773 c 1.6565635,-2.25464 64.7419384,-38.5945 67.0032854,-38.59674 1.235608,-0.001 11.049591,5.35019 33.277079,18.14548 17.33856,9.98097 32.02066,18.58485 32.62689,19.11973 3.02607,2.66989 3.03487,2.92753 2.30433,67.48506 -0.4156,36.72669 -0.34722,35.98291 -3.30232,35.91779 -1.95789,-0.0431 -38.897412,-21.57701 -40.332769,-23.51196 -1.183783,-1.59582 -1.230984,-2.42714 -1.513786,-26.66305 l -0.291904,-25.01588 -1.421481,-1.51224 c -0.781813,-0.83174 -5.376543,-3.74238 -10.210517,-6.46808 -11.444584,-6.4532 -10.828479,-6.4532 -22.273063,0 -4.833972,2.7257 -9.428703,5.63634 -10.210517,6.46808 l -1.421481,1.51224 -0.291904,25.01588 c -0.282312,24.19387 -0.331865,25.07 -1.508023,26.66305 -1.403832,1.90142 -38.3556237,23.46424 -40.2897492,23.51064 -0.6726973,0.0162 -1.646471,-0.43848 -2.1639417,-1.01028 z"
     id="path183" />
  <path
     style="fill:#ff00ff;stroke-width:0.583808"
     d="m 231.72213,303.08628 c -13.80283,-7.38687 -61.73281,-35.55933 -62.70959,-36.85967 -1.13452,-1.51033 -1.17212,-2.59125 -1.32658,-38.13954 -0.11155,-25.67132 0.0331,-37.04878 0.4848,-38.13933 0.35407,-0.8548 1.21374,-2.07875 1.91039,-2.71988 0.69664,-0.64113 15.32181,-9.265 32.50038,-19.16415 26.82824,-15.4598 31.56313,-17.99725 33.56898,-17.98981 1.9912,0.007 6.93672,2.66056 33.56899,18.00909 17.17856,9.90024 31.82928,18.54421 32.55714,19.20882 0.72786,0.66462 1.59625,2.14362 1.92975,3.28668 0.39915,1.36804 0.54543,14.38388 0.42804,38.08611 -0.1741,35.15456 -0.20647,36.04549 -1.36581,37.59786 -1.342,1.79694 -63.27261,37.83327 -66.0775,38.44933 -1.32192,0.29034 -2.59758,-0.0888 -5.46899,-1.62551 z"
     id="path185" />
  <path
     style="fill:#ff00ff;stroke-width:0.583808"
     d="m 400.78449,305.35807 c -0.96328,-0.44206 -15.51634,-8.77295 -32.34013,-18.51306 -19.52441,-11.30366 -31.03319,-18.30552 -31.81756,-19.3576 -1.21946,-1.63569 -1.22885,-1.93543 -1.22885,-39.21831 0,-36.86903 0.0222,-37.5997 1.18748,-39.16053 0.73033,-0.97819 13.42896,-8.67875 32.98518,-20.0025 26.85718,-15.55125 32.16052,-18.41746 34.13292,-18.44726 1.89781,-0.0287 3.89391,0.86683 10.65638,4.78067 7.92743,4.58808 10.03837,5.37365 11.66434,4.34084 0.55904,-0.3551 0.75462,-11.31615 0.87571,-49.07815 0.15187,-47.361154 0.18528,-48.642401 1.28916,-49.449465 0.62329,-0.455693 1.59387,-0.828532 2.15685,-0.828532 0.56299,0 9.64208,4.819347 20.17576,10.709659 14.74562,8.245578 19.45438,11.153381 20.46573,12.638217 l 1.31357,1.928558 v 89.557253 c 0,95.59162 0.1286,91.15196 -2.71332,93.67187 -0.96018,0.85138 -57.93838,33.9536 -62.53649,36.33137 -2.20749,1.14154 -3.93239,1.16823 -6.26673,0.097 z m 13.66598,-56.44195 c 5.64859,-3.25395 10.72992,-6.31588 11.29183,-6.80429 0.91587,-0.79605 1.02167,-2.23481 1.02167,-13.89346 v -13.00545 l -1.60548,-1.11826 c -2.54631,-1.77359 -20.93325,-12.38884 -21.45901,-12.38884 -0.2612,0 -5.55574,2.94097 -11.76565,6.5355 l -11.29073,6.53549 v 13.55347 13.55347 l 11.237,6.47431 c 6.18035,3.56088 11.47623,6.47432 11.7686,6.47432 0.29238,0 5.15318,-2.66232 10.80177,-5.91626 z"
     id="path187" />
  <path
     style="fill:#ff00ff;stroke-width:0.583808"
     d="m 555.78563,296.7446 c -46.79874,-26.58276 -50.34654,-28.685 -51.44249,-30.48222 -1.04162,-1.70815 -1.0959,-3.63325 -1.0959,-38.86899 0,-35.16109 0.0562,-37.16394 1.08972,-38.85883 1.60994,-2.64006 63.52587,-38.39 67.00467,-38.68815 2.25673,-0.19341 4.26913,0.86634 29.77424,15.6795 38.08384,22.1188 36.69668,21.25377 37.79529,23.56891 0.74862,1.57761 0.94289,3.95539 0.94289,11.54072 0,8.19613 -0.15417,9.84118 -1.08495,11.57671 -0.91559,1.70723 -4.08219,3.77502 -20.28734,13.24764 -11.14758,6.51625 -19.83789,11.23508 -20.71739,11.24954 -3.10253,0.051 -3.44738,-1.15276 -3.44738,-12.03334 0,-9.54523 -0.05,-9.9687 -1.31357,-11.12458 -2.2304,-2.04032 -20.5654,-12.4295 -21.93578,-12.4295 -1.60231,0 -20.33984,10.71173 -22.14176,12.65783 -1.27268,1.37452 -1.3133,1.78565 -1.30496,13.20824 0.006,8.21691 0.22714,12.20255 0.72976,13.15237 0.47493,0.8975 10.28892,6.84049 28.74396,17.40626 38.99568,22.3256 35.90581,20.40863 35.89528,22.26956 -0.005,0.86867 -0.2087,1.89361 -0.45285,2.27766 -0.24415,0.38405 -8.97535,5.46618 -19.40268,11.29364 -13.097,7.31943 -19.68081,10.68112 -21.29403,10.87269 -2.14002,0.25414 -3.4821,-0.37413 -16.05473,-7.51566 z"
     id="path189" />
  <path
     style="fill:#ff00ff;stroke-width:0.583808"
     d="m 564.68871,237.8615 -5.98403,-3.52198 v -7.22807 c 0,-8.33514 -0.76636,-7.17241 8.03207,-12.18644 l 4.82113,-2.74745 6.27123,3.69501 6.27123,3.69502 v 7.47883 7.47884 l -5.83808,3.41274 c -3.21095,1.87701 -6.23216,3.42011 -6.7138,3.42911 -0.48164,0.009 -3.56853,-1.56852 -6.85975,-3.50561 z"
     id="path191" />
  <path
     style="fill:#ff00ff;stroke-width:0.583808"
     d="m 403.90357,346.50508 c -4.90832,-1.4828 -8.08145,-5.49225 -8.08145,-10.21144 0,-5.76392 4.02078,-10.23335 9.62415,-10.69802 1.85788,-0.15407 3.95125,0.039 4.96181,0.45756 2.47707,1.02604 5.6735,4.77966 6.41495,7.5332 1.38379,5.13901 -2.10919,11.19786 -7.36316,12.77199 -2.67423,0.80122 -3.33226,0.81859 -5.5563,0.14671 z m 5.78139,-1.49656 c 4.171,-1.74276 6.12137,-4.64367 6.12137,-9.10471 0,-5.22465 -4.05154,-9.23306 -9.35296,-9.25339 -5.53762,-0.0212 -9.46363,3.82996 -9.46363,9.28329 0,7.28912 6.25974,11.76372 12.69522,9.07481 z"
     id="path193" />
  <path
     style="fill:#ff00ff;stroke-width:0.583808"
     d=""
     id="path195" />
  <path
     style="fill:#ff00ff;stroke-width:0.583808"
     d="m 404.69306,333.35462 c 0.0119,-0.96329 0.14274,-1.28668 0.29076,-0.71865 0.14802,0.56803 0.13829,1.35617 -0.0216,1.75142 -0.15992,0.39526 -0.28103,-0.0695 -0.26913,-1.03277 z"
     id="path197" />
  <path
     style="fill:#ff00ff;stroke-width:0.583808"
     d="m 402.24401,335.98176 v -5.83809 h 2.95743 c 1.62658,0 3.46558,0.27196 4.08666,0.60435 1.53813,0.82318 1.52202,3.81483 -0.025,4.64277 -1.14978,0.61534 -1.14978,0.62219 0,1.77196 1.38638,1.38639 1.58199,4.65709 0.27852,4.65709 -0.53699,0 -0.87571,-0.54607 -0.87571,-1.41177 0,-2.4224 -0.61533,-3.2587 -2.3977,-3.2587 -1.58125,0 -1.68896,0.14893 -1.68896,2.33524 0,1.94602 -0.19461,2.33523 -1.16762,2.33523 -1.08978,0 -1.16762,-0.38921 -1.16762,-5.83808 z m 6.32702,-2.26921 c 0.21963,-1.5533 -0.70462,-2.37889 -2.67821,-2.39232 -1.11814,-0.008 -1.31357,0.30057 -1.31357,2.07138 0,1.99534 0.0775,2.07284 1.89737,1.89737 1.4904,-0.1437 1.93964,-0.48184 2.09441,-1.57643 z"
     id="path199" />
  <path
     style="fill:#ff00ff;stroke-width:0.583808"
     d="m 311.97267,450.76823 c -2.68515,-1.21582 -21.71988,-12.5697 -22.09756,-13.1808 -0.1777,-0.28751 0.27184,-0.69782 0.99897,-0.9118 0.72712,-0.21398 3.08382,-1.18596 5.2371,-2.15996 l 3.91505,-1.77092 7.58886,4.45317 c 4.17388,2.44924 8.10449,4.45316 8.73471,4.45316 0.63022,0 14.23749,-7.56806 30.23839,-16.81792 l 29.09254,-16.81793 v -34.96784 -34.96783 l -29.17408,-16.81173 c -16.04574,-9.24645 -29.63357,-16.81173 -30.19518,-16.81173 -1.11909,0 -58.87846,33.05758 -59.57277,34.09545 -0.2359,0.35263 -0.43294,15.90352 -0.43786,34.55751 -0.008,31.58566 0.0613,33.97641 1.01273,34.79024 1.80129,1.54074 16.21932,9.6349 18.50798,10.39022 3.0692,1.01293 7.05753,0.45851 8.89665,-1.23673 3.13173,-2.88671 3.09936,-2.47899 3.09936,-39.04168 v -33.90326 l 4.81642,0.16957 4.81642,0.16956 v 36.19612 36.19612 l -1.39639,3.09039 c -2.81167,6.22261 -8.65684,9.2433 -16.94397,8.75637 -5.06346,-0.29752 -9.1983,-2.05316 -21.35861,-9.06883 -8.15209,-4.70319 -10.45333,-7.31035 -11.08668,-12.56051 -0.2031,-1.68366 -0.28747,-18.16724 -0.18748,-36.63019 0.18134,-33.48566 0.18504,-33.57506 1.48997,-36.01635 0.7195,-1.34605 2.16443,-3.08103 3.21095,-3.85552 1.04652,-0.77449 15.25924,-9.10604 31.58382,-18.51456 32.70445,-18.8489 32.60688,-18.80631 37.80756,-16.5029 4.33844,1.92152 59.67349,34.06015 61.46072,35.69642 0.9235,0.8455 2.16562,2.58812 2.76027,3.8725 1.01503,2.19236 1.08118,4.51414 1.08118,37.94755 0,33.43341 -0.0661,35.7552 -1.08118,37.94755 -0.59465,1.28438 -1.83677,3.02489 -2.76027,3.8678 -0.9235,0.8429 -15.20885,9.35702 -31.74523,18.92026 -28.07522,16.23632 -30.27875,17.40152 -33.27708,17.59639 -1.95227,0.12689 -3.92609,-0.11511 -5.03531,-0.61736 z"
     id="path201" />
  <path
     style="fill:#ff00ff;stroke-width:0.583808"
     d=""
     id="path203" />
  <path
     style="fill:#ff00ff;stroke-width:0.583808"
     d="m 321.38655,404.32596 c -2.24767,-0.57368 -4.829,-1.34354 -5.73631,-1.7108 -3.04942,-1.23434 -6.76893,-4.17963 -8.55299,-6.77268 -2.00588,-2.91544 -3.79285,-9.05791 -3.25665,-11.19429 0.34696,-1.3824 0.49795,-1.41961 5.09399,-1.25533 l 4.73643,0.16928 0.71475,2.82128 c 1.39173,5.49342 4.73875,8.06149 11.98542,9.19606 5.39275,0.84432 15.63779,0.35502 19.31551,-0.9225 4.71034,-1.63621 6.90911,-5.51732 5.6694,-10.00719 -0.4593,-1.66345 -1.07461,-2.28884 -3.15918,-3.21094 -3.00035,-1.3272 -8.62281,-2.46507 -16.88563,-3.41729 -15.89741,-1.83205 -22.78767,-5.32777 -24.82186,-12.59318 -0.96446,-3.44474 -0.45955,-9.30707 1.05777,-12.28127 1.32401,-2.59527 4.87897,-6.06887 7.7085,-7.53207 3.72958,-1.92864 10.49467,-3.21172 16.87874,-3.20125 13.89442,0.0228 22.4332,3.93301 26.10569,11.95479 1.7977,3.92668 2.44868,8.39071 1.32716,9.10081 -0.98502,0.62367 -7.57174,0.69267 -8.43649,0.0884 -0.33758,-0.2359 -1.10197,-1.74248 -1.69866,-3.34795 -2.32789,-6.26358 -6.42552,-8.17332 -17.53704,-8.17332 -10.95167,0 -14.88712,2.09827 -14.88712,7.9374 0,4.90501 1.75745,5.64664 19.9574,8.4218 13.95778,2.1283 18.83524,3.89308 22.59523,8.17547 2.3005,2.62013 3.17607,6.02177 2.85136,11.07764 -0.55219,8.5979 -5.8643,13.91699 -16.65484,16.67675 -5.91765,1.51347 -18.44156,1.51369 -24.37058,4.1e-4 z"
     id="path205" />
</svg>
